<svg xmlns="http://www.w3.org/2000/svg" viewBox="0 0 512 512" role="img" aria-labelledby="title desc">
  <title id="title">HMG Intranet icon</title>
  <desc id="desc">Dark command dashboard mark with service tiles, weather, network, and launch indicators.</desc>
  <defs>
    <linearGradient id="bg" x1="70" y1="30" x2="448" y2="472" gradientUnits="userSpaceOnUse">
      <stop stop-color="#10272a"/>
      <stop offset="0.45" stop-color="#111418"/>
      <stop offset="1" stop-color="#090a0c"/>
    </linearGradient>
    <linearGradient id="accent" x1="104" y1="96" x2="408" y2="410" gradientUnits="userSpaceOnUse">
      <stop stop-color="#2dd4bf"/>
      <stop offset="1" stop-color="#38bdf8"/>
    </linearGradient>
  </defs>
  <rect width="512" height="512" rx="108" fill="url(#bg)"/>
  <rect x="82" y="92" width="348" height="328" rx="34" fill="#17191d" stroke="#30363d" stroke-width="8"/>
  <path d="M118 162h276" stroke="#3f454d" stroke-width="8"/>
  <circle cx="130" cy="128" r="12" fill="#2dd4bf"/>
  <circle cx="166" cy="128" r="12" fill="#facc15"/>
  <circle cx="202" cy="128" r="12" fill="#f43f5e"/>
  <rect x="118" y="198" width="120" height="78" rx="16" fill="#20252b" stroke="#2dd4bf" stroke-opacity="0.35" stroke-width="5"/>
  <rect x="274" y="198" width="120" height="78" rx="16" fill="#20252b" stroke="#38bdf8" stroke-opacity="0.35" stroke-width="5"/>
  <rect x="118" y="306" width="120" height="78" rx="16" fill="#20252b" stroke="#facc15" stroke-opacity="0.35" stroke-width="5"/>
  <rect x="274" y="306" width="120" height="78" rx="16" fill="#20252b" stroke="#a78bfa" stroke-opacity="0.35" stroke-width="5"/>
  <path d="M146 238h62M302 238h62M146 346h62M302 346h62" stroke="#eef2f7" stroke-width="11" stroke-linecap="round"/>
  <path d="M166 218l22 20-22 20M324 218l22 20-22 20" stroke="url(#accent)" stroke-width="13" stroke-linecap="round" stroke-linejoin="round"/>
  <path d="M151 326c10-18 44-18 54 0 17 0 28 10 28 24h-110c0-14 11-24 28-24Z" fill="#facc15"/>
  <path d="M316 364l38-76 38 76h-25l-13 27-13-27h-25Z" fill="#a78bfa"/>
  <text x="256" y="470" text-anchor="middle" font-family="Arial, sans-serif" font-size="54" font-weight="900" fill="#eef2f7">HMG</text>
</svg>
